<svg width="64" height="64" viewBox="0 0 64 64" fill="none" xmlns="http://www.w3.org/2000/svg">
<g clip-path="url(#clip0_10663_35307)">
<mask id="mask0_10663_35307" style="mask-type:alpha" maskUnits="userSpaceOnUse" x="0" y="0" width="64" height="64">
<path d="M64 32C64 14.3269 49.6731 0 32 0C14.3269 0 0 14.3269 0 32C0 49.6731 14.3269 64 32 64C49.6731 64 64 49.6731 64 32Z" fill="white"/>
</mask>
<g mask="url(#mask0_10663_35307)">
<path d="M64 0H0V64H64V0Z" fill="#DC971F"/>
<path d="M15.4289 13.4335C-0.716319 20.6218 -7.97731 39.5374 -0.789008 55.6826C6.39929 71.8278 25.3148 79.0887 41.46 71.9004C57.6052 64.7121 64.8662 45.7966 57.6779 29.6514C50.4896 13.5062 31.5741 6.24524 15.4289 13.4335Z" fill="#EFC456"/>
<path d="M12.6797 34.6973C12.8645 36.4557 13.9731 38.0442 15.7617 39.1133C17.5502 40.1825 19.8722 40.6447 22.2167 40.3983C24.5613 40.1518 26.7364 39.217 28.2636 37.7993C29.7908 36.3817 30.5449 34.5974 30.3601 32.839" fill="#011C28"/>
<path d="M14.5879 27.3467C14.4853 26.3703 13.8084 25.6411 13.076 25.7181C12.3437 25.795 11.8332 26.649 11.9358 27.6255C12.0385 28.6019 12.7153 29.3311 13.4477 29.2541C14.18 29.1772 14.6905 28.3232 14.5879 27.3467Z" fill="#011C28"/>
<path d="M28.7324 25.8604C28.6298 24.8839 27.9529 24.1547 27.2206 24.2317C26.4882 24.3087 25.9777 25.1627 26.0804 26.1391C26.183 27.1156 26.8599 27.8448 27.5922 27.7678C28.3246 27.6908 28.835 26.8369 28.7324 25.8604Z" fill="#011C28"/>
</g>
</g>
<defs>
<clipPath id="clip0_10663_35307">
<rect width="64" height="64" fill="white"/>
</clipPath>
</defs>
</svg>
