<svg width="40" height="40" viewBox="0 0 40 40" fill="none" xmlns="http://www.w3.org/2000/svg">
<circle cx="20" cy="20" r="20" fill="#EBEBF1"/>
<mask id="mask0_10647_11437" style="mask-type:alpha" maskUnits="userSpaceOnUse" x="0" y="0" width="40" height="40">
<circle cx="20" cy="20" r="20" fill="#AFD2C8"/>
</mask>
<g mask="url(#mask0_10647_11437)">
<path d="M31.8341 33.4978V36.9499C31.8341 37.2726 31.5724 37.5343 31.2497 37.5343C30.9269 37.5343 30.6653 37.2726 30.6653 36.9499V33.4978C30.6653 30.8099 28.4902 28.6347 25.8021 28.6348C24.5303 28.6348 23.3763 27.9868 22.7151 26.9015C22.5473 26.6259 22.6345 26.2662 22.9102 26.0984C23.1859 25.9304 23.5454 26.0178 23.7133 26.2935C24.1606 27.0277 24.9414 27.466 25.8021 27.466C29.1359 27.4659 31.8341 30.1637 31.8341 33.4978ZM21.6359 27.6397C21.7046 27.9551 21.5047 28.2664 21.1893 28.3351C19.6513 28.6702 18.0871 28.3348 16.8417 27.4847C15.6088 28.806 13.9799 28.6348 14.198 28.6348C11.5101 28.6347 9.33481 30.8097 9.33481 33.4978V36.9499C9.33481 37.2726 9.07315 37.5343 8.75041 37.5343C8.42768 37.5343 8.16602 37.2726 8.16602 36.9499V33.4978C8.16602 30.1641 10.8637 27.466 14.1978 27.466C15.5465 27.466 16.6398 26.3794 16.6398 25.0304V24.8765C14.089 23.6567 12.2985 21.0937 12.1894 18.1089C11.1397 17.8565 10.3575 16.917 10.3575 15.7991V12.7695C10.3256 11.2866 10.5458 7.5725 13.2538 4.96214C16.5976 1.73875 21.9601 1.94351 25.9032 3.84171C26.2875 4.02689 26.3458 4.54612 26.0267 4.81502C28.0242 5.30226 29.7467 6.53023 30.8534 8.28766C30.9105 8.37817 31.0151 8.52025 30.9878 8.74692C30.9708 8.88798 30.9288 9.00735 30.8201 9.11765C30.1079 9.83997 29.7157 10.7971 29.7157 11.8129V15.7992C29.7157 16.122 29.454 16.3836 29.1313 16.3836C28.8086 16.3836 28.5469 16.122 28.5469 15.7992V11.8129C28.5469 10.6414 28.9471 9.52943 29.6822 8.63618C28.5618 7.03376 26.8137 6.00318 24.8367 5.79148L23.8096 5.68146C23.2089 5.61718 23.0911 4.78975 23.6493 4.56L24.1164 4.36766C18.0324 2.24666 11.5262 4.60332 11.5262 12.7631V15.7991C11.5262 16.2628 11.7933 16.6658 12.1837 16.8682V13.0797C12.1837 10.824 14.0188 8.98886 16.2745 8.98886H23.7255C25.9812 8.98886 27.8163 10.8239 27.8163 13.0794V17.8644C27.8163 22.9468 22.8498 26.8072 17.7961 25.3194C17.7632 25.7363 17.6594 26.1387 17.4903 26.5127C18.4734 27.1878 19.7149 27.4602 20.9404 27.1931C21.2558 27.1244 21.5671 27.3244 21.6359 27.6397ZM20 24.4675C23.6655 24.4675 26.6475 21.4855 26.6475 17.82V13.0794C26.6475 11.4684 25.3367 10.1577 23.7255 10.1577H16.2745C14.6633 10.1577 13.3525 11.4685 13.3525 13.0797V17.82C13.3525 21.4855 16.3345 24.4675 20 24.4675ZM25.917 34.5393H24.1638C23.8411 34.5393 23.5794 34.8009 23.5794 35.1237C23.5794 35.4464 23.8411 35.7081 24.1638 35.7081H25.917C26.2398 35.7081 26.5014 35.4464 26.5014 35.1237C26.5014 34.8009 26.2398 34.5393 25.917 34.5393Z" fill="#34AADD"/>
</g>
</svg>
