<svg width="14" height="8" viewBox="0 0 14 8" fill="none" xmlns="http://www.w3.org/2000/svg">
<mask id="path-1-inside-1_26147_5467" fill="currentColor">
<path fill-rule="evenodd" clip-rule="evenodd" d="M0.527163 4.48987C0.326069 4.19384 0.326069 3.80616 0.527163 3.51013C1.96628 1.39167 4.39531 0 7.14938 0C9.90345 0 12.3325 1.39167 13.7716 3.51014C13.9727 3.80616 13.9727 4.19385 13.7716 4.48987C12.3325 6.60833 9.90345 8 7.14938 8C4.39531 8 1.96628 6.60833 0.527163 4.48987Z"/>
</mask>
<path d="M13.7716 3.51014L12.9444 4.07206L13.7716 3.51014ZM13.7716 4.48987L12.9444 3.92794L13.7716 4.48987ZM1.35435 4.07206C2.61528 2.21591 4.74049 1 7.14938 1V-1C4.05013 -1 1.31729 0.567426 -0.300024 2.94821L1.35435 4.07206ZM7.14938 1C9.55827 1 11.6835 2.21591 12.9444 4.07206L14.5988 2.94821C12.9815 0.567429 10.2486 -1 7.14938 -1V1ZM12.9444 3.92794C11.6835 5.78409 9.55827 7 7.14938 7V9C10.2486 9 12.9815 7.43257 14.5988 5.05179L12.9444 3.92794ZM7.14938 7C4.74049 7 2.61528 5.78409 1.35435 3.92794L-0.300025 5.05179C1.31729 7.43257 4.05013 9 7.14938 9V7ZM12.9444 4.07206C12.9151 4.0289 12.9151 3.97111 12.9444 3.92794L14.5988 5.05179C15.0303 4.41659 15.0303 3.58342 14.5988 2.94821L12.9444 4.07206ZM-0.300024 2.94821C-0.731535 3.58342 -0.731535 4.41658 -0.300025 5.05179L1.35435 3.92794C1.38367 3.9711 1.38367 4.0289 1.35435 4.07206L-0.300024 2.94821Z" fill="currentColor" mask="url(#path-1-inside-1_26147_5467)"/>
<circle cx="7.14929" cy="4" r="3.5" stroke="currentColor"/>
<circle cx="7.14929" cy="4" r="1" fill="currentColor"/>
</svg>
