<svg width="14" height="12" viewBox="0 0 14 12" fill="none" xmlns="http://www.w3.org/2000/svg">
<g clip-path="url(#clip0_26147_5441)">
<path d="M6.38698 10.5694L6.37607 10.5587L6.36454 10.5487C4.68208 9.08862 3.33126 7.90013 2.39623 6.78413C1.46661 5.67459 1 4.69637 1 3.66314C1 1.99039 2.31221 0.689453 4.041 0.689453C4.98958 0.689453 5.94603 1.13104 6.55956 1.84234L6.93818 2.28129L7.31679 1.84234C7.93032 1.13104 8.88677 0.689453 9.83535 0.689453C11.5641 0.689453 12.8764 1.99039 12.8764 3.66314C12.8764 4.69637 12.4097 5.67459 11.4801 6.78413C10.5451 7.90013 9.19427 9.08862 7.51181 10.5487L7.50028 10.5587L7.48938 10.5694L6.93818 11.1101L6.38698 10.5694Z" stroke="currentColor"/>
</g>
<defs>
<clipPath id="clip0_26147_5441">
<rect width="12.8764" height="11.6211" fill="currentColor" transform="translate(0.5 0.189453)"/>
</clipPath>
</defs>
</svg>
