<svg width="89" height="24" viewBox="0 0 89 24" fill="none" xmlns="http://www.w3.org/2000/svg">
<path d="M53.4004 9.10997V0H59.1038V2.13613H55.7822V9.10997H53.4004Z" fill="#008895"/>
<path d="M66.3739 9.10997V5.5288H62.8012V9.10997H60.4199V0H62.8012V3.39267H66.3739V0H68.7557V9.10997H66.3739Z" fill="#008895"/>
<path d="M82.6701 9.10997V2.13613H79.8496V0H87.8718V2.13613H85.0513V9.10997H82.6701Z" fill="#008895"/>
<path d="M76.3392 9.10997V3.89529L72.5159 9.10997H70.5107V0H72.892V5.15183L76.6528 0H78.721V9.10997H76.3392Z" fill="#008895"/>
<path d="M39.6111 9.10997V3.70681L37.2294 6.59685L34.8477 3.70681V9.10997H32.4033V0H34.785L37.2294 3.14136L39.6111 0H41.9928V9.10997H39.6111Z" fill="#008895"/>
<path d="M50.0152 9.10997L49.5138 7.85339H45.8159L45.3145 9.10997H42.8701L46.568 0H48.7617L52.4595 9.10997H50.0152ZM46.568 5.90576H48.8244L47.6335 3.07853L46.568 5.90576Z" fill="#008895"/>
<path d="M54.967 23.9996V17.0258H52.1465V14.8896H60.1688V17.0258H57.3488V23.9996H54.967Z" fill="#008895"/>
<path d="M48.2604 23.9996V17.0258H45.1893V23.9996H42.8076V14.8896H50.7048V23.9996H48.2604Z" fill="#008895"/>
<path d="M61.6729 23.9996V14.8896H68.3166V17.0258H64.0547V18.3452H67.8149V20.3556H64.0547V21.8635H68.3166V23.9996H61.6729Z" fill="#008895"/>
<path d="M76.0258 23.9996L73.0173 20.1671H72.3906V23.9996H70.0088V14.8896H72.3906V17.9682H73.1429L75.4616 14.8896H78.2196L75.0855 19.0991L78.7832 23.9996H76.0258Z" fill="#008895"/>
<path d="M39.5484 23.9996L39.047 22.7431H35.2864L34.785 23.9996H32.4033L36.1012 14.8896H38.2949L41.9928 23.9996H39.5484ZM36.1012 20.7954H38.3575L37.2294 17.9054L36.1012 20.7954Z" fill="#008895"/>
<path d="M86.5551 23.9996L86.0534 22.7431H82.2931L81.7914 23.9996H79.4102L83.1079 14.8896H85.3016L88.9994 23.9996H86.5551ZM83.0454 20.7954H85.3016L84.1732 17.9054L83.0454 20.7954Z" fill="#008895"/>
<path d="M10.2787 7.35059V10.3035H7.33301V13.759H10.2787V16.649H13.726V13.759H16.609V10.3035H13.726V7.35059H10.2787Z" fill="#008895"/>
<path d="M0 7.28795C0 5.34032 0.752114 3.51833 2.13099 2.13613C3.50986 0.753925 5.32744 0 7.2704 0H24.0049V3.70681H7.2704C6.33028 3.70681 5.45284 4.08377 4.76338 4.77487C4.07394 5.46597 3.69789 6.34555 3.69789 7.28795V13.5078C3.50986 15.1414 2.31901 16.4607 0.689437 16.7121L0.0626761 16.8377V7.28795H0Z" fill="#008895"/>
<path d="M0 23.9998V20.293H16.7345C17.6747 20.293 18.5521 19.9161 19.2415 19.2249C19.931 18.5338 20.307 17.6543 20.307 16.7119V10.8061C20.307 9.04696 21.6232 7.53912 23.3155 7.28776L23.9423 7.16211V16.649C23.9423 18.5967 23.1901 20.4187 21.8113 21.8009C20.4324 23.1831 18.6148 23.937 16.6718 23.937H0V23.9998Z" fill="#008895"/>
</svg>
