<svg width="24" height="24" viewBox="0 0 24 24" fill="none" xmlns="http://www.w3.org/2000/svg">
<path fill-rule="evenodd" clip-rule="evenodd" d="M11 16C11 16.552 11.448 17 12 17C12.552 17 13 16.552 13 16C13 15.448 12.552 15 12 15C11.448 15 11 15.448 11 16ZM11 13C11 13.552 11.448 14 12 14C12.552 14 13 13.552 13 13V8C13 7.448 12.552 7 12 7C11.448 7 11 7.448 11 8V13ZM12 4C7.589 4 4 7.589 4 12C4 16.411 7.589 20 12 20C16.411 20 20 16.411 20 12C20 7.589 16.411 4 12 4ZM12 22C6.477 22 2 17.523 2 12C2 6.477 6.477 2 12 2C17.522 2 22 6.477 22 12C22 17.523 17.522 22 12 22Z" fill="#currentColor"/>
<mask id="mask0_25117_569" style="mask-type:luminance" maskUnits="userSpaceOnUse" x="2" y="2" width="20" height="20">
<path fill-rule="evenodd" clip-rule="evenodd" d="M11 16C11 16.552 11.448 17 12 17C12.552 17 13 16.552 13 16C13 15.448 12.552 15 12 15C11.448 15 11 15.448 11 16ZM11 13C11 13.552 11.448 14 12 14C12.552 14 13 13.552 13 13V8C13 7.448 12.552 7 12 7C11.448 7 11 7.448 11 8V13ZM12 4C7.589 4 4 7.589 4 12C4 16.411 7.589 20 12 20C16.411 20 20 16.411 20 12C20 7.589 16.411 4 12 4ZM12 22C6.477 22 2 17.523 2 12C2 6.477 6.477 2 12 2C17.522 2 22 6.477 22 12C22 17.523 17.522 22 12 22Z" fill="currentColor"/>
</mask>
<g mask="url(#mask0_25117_569)">
<rect width="24" height="24" transform="matrix(1 0 0 -1 0 24)" fill="currentColor"/>
</g>
</svg>
