<svg width="95" height="19" viewBox="0 0 95 19" fill="none" xmlns="http://www.w3.org/2000/svg">
<path fill-rule="evenodd" clip-rule="evenodd" d="M21.0208 17.8842H16.1093L15.4153 16.9766C14.4543 17.3503 13.6002 17.6173 12.8528 17.8308C12.1054 17.991 11.3046 18.0977 10.397 18.0977C7.40742 18.0977 5.05845 17.3503 3.40349 15.9089C1.64177 14.4141 0.787598 12.1185 0.787598 9.18234C0.787598 6.19274 1.58838 3.89715 3.13657 2.34897C4.73814 0.800785 7.14049 0 10.397 0C13.5468 0 15.9491 0.854171 17.6041 2.50913C19.0455 3.95054 19.7395 5.81904 19.7395 8.06124C19.7395 9.71619 19.6861 10.9441 19.526 11.6915C19.3124 12.8659 18.7786 13.987 18.0312 15.0014L21.0208 17.8842ZM15.4153 9.02218C15.4153 7.42061 15.095 6.13935 14.4009 5.12502C13.5468 3.84377 12.1587 3.20314 10.3436 3.20314C8.63529 3.20314 7.30065 3.68361 6.44648 4.69794C5.59231 5.65888 5.16522 7.10029 5.16522 8.96879C5.16522 11.0508 5.64569 12.599 6.66002 13.56C7.56758 14.4141 8.90222 14.8412 10.6639 14.8412C12.2655 14.8412 13.44 14.3607 14.2408 13.3998C15.0416 12.3855 15.4153 10.9441 15.4153 9.02218Z" fill="currentColor"/>
<path fill-rule="evenodd" clip-rule="evenodd" d="M39.5461 12.3855C39.5461 13.9337 39.0122 15.2149 37.9979 16.2826C36.9836 17.3503 35.7023 17.8308 34.1007 17.8308H21.822V14.6811H32.0187C32.7127 14.6811 33.2999 14.5209 33.727 14.2006C34.2609 13.8269 34.5278 13.3464 34.5278 12.7058C34.5278 11.211 33.4601 10.4636 31.3781 10.4636H26.253C24.7582 10.4636 23.477 9.98312 22.3559 9.07557C21.2348 8.16801 20.7009 6.99353 20.7009 5.55211C20.7009 4.00393 21.2348 2.72267 22.3559 1.76173C23.4236 0.800791 24.865 0.32032 26.6801 0.32032H38.4783V3.30992H28.0148C27.5343 3.30992 27.0538 3.52346 26.6267 3.89716C26.0929 4.27086 25.8793 4.75133 25.8793 5.28519C25.8793 5.87243 26.0929 6.40628 26.5733 6.77998C27.0538 7.20707 27.5877 7.36723 28.2283 7.36723H33.8872C35.6489 7.36723 37.0369 7.8477 38.0513 8.75525C39.0656 9.66281 39.5461 10.8907 39.5461 12.3855Z" fill="currentColor"/>
<path fill-rule="evenodd" clip-rule="evenodd" d="M59.7258 9.02225C59.7258 12.4389 58.7649 14.8413 56.8964 16.3361C55.3482 17.5106 53.106 18.0978 50.2232 18.0978C46.9667 18.0978 44.5643 17.4038 43.0161 16.0692C41.3078 14.5744 40.4536 12.172 40.4536 8.86209C40.4536 6.13942 41.201 4.004 42.7492 2.5092C44.4041 0.854244 46.8599 0.0534592 50.1698 0.0534592C53.8 0.0534592 56.3092 0.854244 57.804 2.40243C59.0852 3.79045 59.7258 5.97927 59.7258 9.02225ZM55.2414 8.91548C55.2414 7.20714 54.8144 5.81911 54.0136 4.80478C53.106 3.68368 51.718 3.09644 49.9563 3.09644C48.1945 3.09644 46.8599 3.68368 45.9523 4.91155C45.2049 5.92588 44.8312 7.26052 44.8312 8.86209C44.8312 10.7306 45.1515 12.1186 45.7388 13.0262C46.593 14.254 48.0878 14.8947 50.3833 14.8947C52.3052 14.8947 53.6399 14.3074 54.3873 13.0796C54.9745 12.2254 55.2414 10.784 55.2414 8.91548Z" fill="currentColor"/>
<path fill-rule="evenodd" clip-rule="evenodd" d="M77.2893 10.517H65.2241V17.7774H60.8999V7.04691C60.8999 6.40629 61.0067 5.65889 61.2736 4.8581C61.7541 3.41669 62.6616 2.34898 63.9963 1.60158C65.5445 0.747405 68.107 0.32032 71.6304 0.32032C79.1578 0.32032 86.6852 0.32032 94.2126 0.32032V3.25653H87.6995V17.7774H83.6422V3.25653C79.4781 3.25653 75.5276 3.20315 71.3635 3.20315C69.7619 3.20315 68.6408 3.30992 68.0002 3.47007C66.8791 3.737 66.1317 4.37763 65.6512 5.28519C65.2775 5.9792 65.1174 6.7266 65.1174 7.58077H77.2893V10.517Z" fill="currentColor"/>
</svg>
