<svg width="24" height="24" viewBox="0 0 24 24" fill="none" xmlns="http://www.w3.org/2000/svg">
<path d="M21.927 8.71768L16.1923 7.88576L13.6291 2.71452C13.1699 1.79276 11.8392 1.78104 11.376 2.71452L8.81285 7.88576L3.07809 8.71768C2.04968 8.8661 1.63754 10.1277 2.38333 10.8502L6.53229 14.8732L5.55099 20.5561C5.37435 21.5833 6.46164 22.3527 7.37229 21.8723L12.5026 19.189L17.6328 21.8723C18.5435 22.3488 19.6308 21.5833 19.4541 20.5561L18.4728 14.8732L22.6218 10.8502C23.3676 10.1277 22.9554 8.8661 21.927 8.71768ZM16.4513 14.217L17.3816 19.6226L12.5026 17.0721L7.62351 19.6226L8.55379 14.217L4.60501 10.3894L10.0611 9.60039L12.5026 4.67912L14.9441 9.60039L20.4001 10.3894L16.4513 14.217Z" fill="currentColor"/>
</svg>
