<svg width="17" height="11" viewBox="0 0 17 11" fill="none" xmlns="http://www.w3.org/2000/svg">
<path d="M16.3473 5.98723H0.918726C0.576388 5.98723 0.298828 5.70967 0.298828 5.36733C0.298828 5.025 0.576388 4.74744 0.918726 4.74744H16.3473C16.6896 4.74744 16.9672 5.025 16.9672 5.36733C16.9672 5.70967 16.6896 5.98723 16.3473 5.98723Z" fill="currentColor"/>
<path d="M11.2063 10.1349C11.0252 10.1349 10.8458 10.056 10.7234 9.90413C10.5084 9.63767 10.5502 9.2474 10.8167 9.03245L15.3607 5.3673L10.8167 1.70215C10.5502 1.4872 10.5085 1.09693 10.7234 0.830473C10.9383 0.563969 11.3286 0.522229 11.595 0.737127L16.7372 4.88476C16.8831 5.00244 16.9679 5.17983 16.9679 5.36725C16.9679 5.55466 16.8831 5.73206 16.7372 5.84973L11.595 9.99737C11.4805 10.0899 11.3429 10.1348 11.2063 10.1349Z" fill="currentColor"/>
</svg>
