<svg width="136" height="31" viewBox="0 0 136 31" fill="none" xmlns="http://www.w3.org/2000/svg">
<g clip-path="url(#clip0_25150_3135)">
<path fill-rule="evenodd" clip-rule="evenodd" d="M15.3419 0.0868229C18.4853 0.0122847 21.5734 0.922504 24.1739 2.69007C26.7744 4.45763 28.7573 6.99407 29.845 9.94439C30.9328 12.8947 31.071 16.1113 30.2403 19.1441C29.8727 20.4862 28.4866 21.2762 27.1445 20.9086C25.8024 20.541 25.0123 19.155 25.38 17.8128C25.933 15.7936 25.841 13.6519 25.1168 11.6876C24.3926 9.72328 23.0724 8.03459 21.3411 6.85783C19.6098 5.68107 17.554 5.07512 15.4613 5.12474C13.3687 5.17437 11.3439 5.87708 9.67026 7.13457C7.99666 8.39207 6.758 10.1414 6.12769 12.1379C5.49738 14.1344 5.50696 16.278 6.1551 18.2687C6.80323 20.2595 8.05748 21.9977 9.74226 23.2402C11.427 24.4827 13.458 25.1672 15.5511 25.1981C16.9425 25.2187 18.0538 26.3633 18.0332 27.7548C18.0127 29.1462 16.8681 30.2575 15.4766 30.2369C12.3327 30.1905 9.28188 29.1622 6.75125 27.2959C4.22062 25.4296 2.33679 22.8188 1.36332 19.8288C0.389861 16.8388 0.37547 13.6193 1.32216 10.6207C2.26886 7.62216 4.12928 4.99459 6.64312 3.10576L8.15669 5.12017L6.64312 3.10576C9.15696 1.21693 12.1984 0.161361 15.3419 0.0868229Z" fill="#121920"/>
<path d="M27.0391 24.9706C27.0391 27.0804 25.3287 28.7908 23.2189 28.7908C21.109 28.7908 19.3987 27.0804 19.3987 24.9706C19.3987 22.8608 21.109 21.1504 23.2189 21.1504C25.3287 21.1504 27.0391 22.8608 27.0391 24.9706Z" fill="#F95A59"/>
<path fill-rule="evenodd" clip-rule="evenodd" d="M61.3726 24.1173H56.3929L55.6893 23.1971C54.715 23.576 53.8489 23.8466 53.0912 24.0631C52.3334 24.2255 51.5215 24.3338 50.6013 24.3338C47.5702 24.3338 45.1886 23.576 43.5106 22.1145C41.7244 20.599 40.8584 18.2715 40.8584 15.2945C40.8584 12.2634 41.6703 9.93591 43.24 8.36622C44.8638 6.79653 47.2995 5.98462 50.6013 5.98462C53.7948 5.98462 56.2305 6.85066 57.9085 8.5286C59.3699 9.99004 60.0736 11.8845 60.0736 14.1578C60.0736 15.8358 60.0194 17.0807 59.8571 17.8385C59.6406 19.0293 59.0993 20.166 58.3415 21.1944L61.3726 24.1173ZM55.6893 15.1321C55.6893 13.5083 55.3645 12.2093 54.6609 11.1808C53.7948 9.88178 52.3875 9.23226 50.5472 9.23226C48.8151 9.23226 47.4619 9.7194 46.5959 10.7478C45.7299 11.7221 45.2968 13.1835 45.2968 15.078C45.2968 17.189 45.784 18.7587 46.8124 19.7329C47.7326 20.599 49.0857 21.032 50.8719 21.032C52.4958 21.032 53.6866 20.5449 54.4985 19.5706C55.3104 18.5421 55.6893 17.0807 55.6893 15.1321Z" fill="#F95A59"/>
<path fill-rule="evenodd" clip-rule="evenodd" d="M80.1553 18.5421C80.1553 20.1118 79.614 21.4108 78.5856 22.4934C77.5572 23.5759 76.2581 24.0631 74.6343 24.0631H62.185V20.8696H72.5233C73.227 20.8696 73.8224 20.7072 74.2554 20.3824C74.7967 20.0035 75.0673 19.5164 75.0673 18.8668C75.0673 17.3513 73.9848 16.5935 71.8738 16.5935H66.6776C65.162 16.5935 63.863 16.1064 62.7263 15.1862C61.5896 14.266 61.0483 13.0752 61.0483 11.6138C61.0483 10.0441 61.5896 8.74505 62.7263 7.77076C63.8088 6.79647 65.2703 6.30933 67.1106 6.30933H79.0727V9.34045H68.4638C67.9766 9.34045 67.4895 9.55696 67.0565 9.93585C66.5152 10.3147 66.2987 10.8019 66.2987 11.3432C66.2987 11.9386 66.5152 12.4798 67.0023 12.8587C67.4895 13.2917 68.0308 13.4541 68.6803 13.4541H74.4178C76.204 13.4541 77.6113 13.9413 78.6397 14.8614C79.6681 15.7816 80.1553 17.0265 80.1553 18.5421Z" fill="#F95A59"/>
<path fill-rule="evenodd" clip-rule="evenodd" d="M100.615 15.1322C100.615 18.5963 99.6408 21.0321 97.7464 22.5476C96.1767 23.7384 93.9034 24.3338 90.9805 24.3338C87.6787 24.3338 85.243 23.6302 83.6733 22.277C81.9412 20.7614 81.0752 18.3257 81.0752 14.9698C81.0752 12.2093 81.833 10.0442 83.4027 8.52867C85.0806 6.85073 87.5705 6.03882 90.9264 6.03882C94.607 6.03882 97.151 6.85073 98.6666 8.42042C99.9656 9.82773 100.615 12.0469 100.615 15.1322ZM96.0684 15.0239C96.0684 13.2919 95.6354 11.8846 94.8235 10.8561C93.9034 9.71947 92.496 9.12407 90.7098 9.12407C88.9236 9.12407 87.5705 9.71947 86.6503 10.9644C85.8925 11.9928 85.5136 13.346 85.5136 14.9698C85.5136 16.8643 85.8384 18.2716 86.4338 19.1917C87.2998 20.4367 88.8154 21.0862 91.1429 21.0862C93.0914 21.0862 94.4446 20.4908 95.2024 19.2459C95.7978 18.3798 96.0684 16.9184 96.0684 15.0239Z" fill="#F95A59"/>
<path fill-rule="evenodd" clip-rule="evenodd" d="M118.423 16.6476H106.19V24.0089H101.806V13.1294C101.806 12.4798 101.914 11.7221 102.185 10.9101C102.672 9.44871 103.592 8.36616 104.945 7.60838C106.515 6.74234 109.113 6.30933 112.685 6.30933C120.317 6.30933 127.949 6.30933 135.581 6.30933V9.28633H128.978V24.0089H124.864V9.28633C120.642 9.28633 116.637 9.2322 112.415 9.2322C110.791 9.2322 109.654 9.34045 109.005 9.50283C107.868 9.77347 107.11 10.423 106.623 11.3432C106.244 12.0468 106.082 12.8046 106.082 13.6706H118.423V16.6476Z" fill="#F95A59"/>
</g>
<defs>
<clipPath id="clip0_25150_3135">
<rect width="135.041" height="30.3184" fill="white" transform="translate(0.540039)"/>
</clipPath>
</defs>
</svg>
